<?xml version="1.0" encoding="utf-8"?>
<!-- Generator: Adobe Illustrator 25.3.1, SVG Export Plug-In . SVG Version: 6.00 Build 0)  -->
<svg version="1.1" id="Layer_1" xmlns="http://www.w3.org/2000/svg" xmlns:xlink="http://www.w3.org/1999/xlink" x="0px" y="0px"
	 viewBox="0 0 100 100" enable-background="new 0 0 100 100" xml:space="preserve">
<path d="M46.9,79.6c-0.7,0-1.4-0.4-1.8-1.1c-0.5-1-0.1-2.2,0.9-2.7c0.5-0.3,1.7-0.8,1.9-4.3V47.8c0-1.1,0.9-2,2-2c1.1,0,2,0.9,2,2
	v23.8c0,0,0,0.1,0,0.1c-0.3,4-1.6,6.4-4.1,7.7C47.5,79.5,47.2,79.6,46.9,79.6z"/>
<path d="M47.5,54.6c-0.4,0-0.9-0.1-1.3-0.2c-2.6-0.7-4.8-1.9-6.5-3.5c-4.2-4.2-4.2-10.8-4.2-11.1c0-1.1,0.9-2,2-2
	c0.3,0,6.9,0,11.1,4.2c1.6,1.6,2.8,3.8,3.5,6.5c0.2,0.8,0.2,1.7,0,2.5c-0.3,1.2-1.1,2.3-2.3,2.9C49.1,54.4,48.3,54.6,47.5,54.6z
	 M39.8,42c0.3,1.8,1.1,4.3,2.8,6c1.1,1.1,2.7,2,4.7,2.5c0,0,0,0,0,0c0.3,0.1,0.5,0,0.6-0.1c0.1-0.1,0.3-0.2,0.4-0.5
	c0-0.1,0-0.3,0-0.4c-0.5-2-1.4-3.6-2.5-4.7C44,43.1,41.5,42.3,39.8,42z"/>
<path d="M52.3,53.9c-1,0-1.9-0.4-2.6-1.1c-1.1-1.1-1.6-2.7-1.2-4.3c0.5-2.2,1.4-4,2.6-5.3c3.1-3.6,8-3.6,8.3-3.6c1.1,0,2,0.9,2,2
	c0,0.2,0,5.6-3,9.1c-1.2,1.4-2.8,2.4-4.8,3C53,53.8,52.7,53.9,52.3,53.9z M52.4,49.9L52.4,49.9L52.4,49.9z M57,44.1
	c-1,0.3-2.1,0.9-3,1.8c-0.7,0.9-1.3,2.1-1.7,3.6l0,0c0,0.2,0,0.3,0,0.4c1.2-0.4,2.2-1,2.9-1.8C56.2,46.9,56.7,45.4,57,44.1z
	 M50.4,49L50.4,49L50.4,49z"/>
<path d="M54.2,44.8c-1.1,0-2-0.9-2-2c0-1.8-0.9-3.9-1.8-5.5c-0.9,1.7-1.8,3.8-1.8,5.5c0,1.1-0.9,2-2,2s-2-0.9-2-2
	c0-4.8,3.8-9.8,4.3-10.4c0.8-1,2.4-1,3.2,0c0.4,0.6,4.3,5.6,4.3,10.4C56.2,43.9,55.3,44.8,54.2,44.8z"/>
<path d="M79.8,52.9c-1,0-1.9-0.4-2.6-1c-1.1-1.1-1.6-2.7-1.2-4.3c0,0,0,0,0,0c0.5-2.2,1.4-4,2.6-5.3c3.1-3.6,8.1-3.6,8.3-3.6
	c1.1,0,2,0.9,2,2c0,0.2,0,5.6-3,9.1c-1.2,1.4-2.8,2.4-4.8,3C80.5,52.8,80.1,52.9,79.8,52.9z M79.9,48.9L79.9,48.9L79.9,48.9z
	 M79.8,48.5L79.8,48.5c0,0.2,0,0.3,0,0.4c1.2-0.4,2.2-1,2.9-1.8c1-1.1,1.5-2.7,1.8-4c-1,0.3-2.1,0.9-3,1.8
	C80.7,45.7,80.2,47,79.8,48.5z"/>
<path d="M75,53.6c-0.4,0-0.9-0.1-1.3-0.2c-2.6-0.7-4.8-1.9-6.5-3.5C63,45.7,63,39.1,63,38.8c0-1.1,0.9-2,2-2c0.1,0,1.7,0,3.9,0.5
	c0.4,0.1,0.7,0.3,1,0.6L70,38c1.2,1.2,2.7,2,4.7,2.5c0.1,0,0.1,0,0.2,0c0.5,0,1,0.2,1.3,0.6c1.6,1.6,2.7,3.7,3.4,6.3
	c0.2,0.8,0.2,1.7,0,2.5c-0.3,1.2-1.1,2.3-2.3,2.9C76.6,53.4,75.8,53.6,75,53.6z M67.2,41c0.3,1.8,1.1,4.3,2.8,6
	c1.1,1.1,2.7,2,4.7,2.5c0.3,0.1,0.5,0,0.6-0.1c0.1-0.1,0.3-0.2,0.4-0.5c0-0.1,0-0.3,0-0.4c-0.4-1.6-1.1-3-2-4.1c0,0-0.1,0-0.1,0
	c-2.5-0.7-4.6-1.8-6.3-3.3C67.3,41,67.3,41,67.2,41z"/>
<path d="M79.8,43.9c-1,0-1.9-0.4-2.6-1c-1.1-1.1-1.6-2.7-1.2-4.3c0,0,0,0,0,0c0.5-2.2,1.4-4,2.6-5.3c3.1-3.6,8-3.6,8.3-3.6
	c1.1,0,2,0.9,2,2c0,0.2,0,5.6-3,9.1c-1.2,1.4-2.8,2.4-4.8,3C80.5,43.8,80.1,43.9,79.8,43.9z M79.9,39.9L79.9,39.9L79.9,39.9z
	 M79.8,39.5L79.8,39.5c0,0.2,0,0.3,0,0.4c1.2-0.4,2.2-1,2.9-1.8c1-1.1,1.5-2.7,1.8-4c-1,0.3-2.1,0.9-3,1.8
	C80.7,36.7,80.2,38,79.8,39.5z"/>
<path d="M81.6,34.8c-1.1,0-2-0.9-2-2c0-1.8-0.9-3.9-1.8-5.5c-0.9,1.7-1.8,3.7-1.8,5.5c0,1.1-0.9,2-2,2s-2-0.9-2-2
	c0-4.8,3.8-9.8,4.3-10.4c0.4-0.5,1-0.8,1.6-0.8l0,0c0.6,0,1.2,0.3,1.6,0.8c0.4,0.6,4.3,5.6,4.3,10.4C83.6,33.9,82.7,34.8,81.6,34.8z
	"/>
<path d="M87,66H13c-1.1,0-2-0.9-2-2s0.9-2,2-2h74c1.1,0,2,0.9,2,2S88.1,66,87,66z"/>
<path d="M50,100c-2,0-4-0.5-5.8-1.5l-35-19.2C5.4,77.2,3,73.2,3,68.8V31.2c0-4.4,2.4-8.4,6.2-10.5l35-19.2c3.6-2,7.9-2,11.5,0
	l35,19.2c3.8,2.1,6.2,6.1,6.2,10.5v37.6c0,4.4-2.4,8.4-6.2,10.5l-35,19.2C54,99.5,52,100,50,100z M50,4c-1.3,0-2.6,0.3-3.9,1
	l-35,19.2c-2.6,1.4-4.1,4.1-4.1,7v37.6c0,2.9,1.6,5.6,4.1,7l35,19.2c2.4,1.3,5.3,1.3,7.7,0l35-19.2c2.6-1.4,4.1-4.1,4.1-7V31.2
	c0-2.9-1.6-5.6-4.1-7L53.8,5C52.6,4.3,51.3,4,50,4z"/>
<path d="M32.9,76.8H21.6c-1.1,0-2-0.9-2-2s0.9-2,2-2h11.3c1.1,0,2,0.9,2,2S34,76.8,32.9,76.8z"/>
<path d="M61.7,88H37.5c-1.1,0-2-0.9-2-2s0.9-2,2-2h24.2c1.1,0,2,0.9,2,2S62.8,88,61.7,88z"/>
<path d="M40.8,76.5h-1.4c-1.1,0-2-0.9-2-2s0.9-2,2-2h1.4c1.1,0,2,0.9,2,2S41.9,76.5,40.8,76.5z"/>
<path d="M63.6,76.5h-4.8c-1.1,0-2-0.9-2-2s0.9-2,2-2h4.8c1.1,0,2,0.9,2,2S64.7,76.5,63.6,76.5z"/>
<path d="M75,44.6c-0.4,0-0.9-0.1-1.3-0.2c-2.6-0.7-4.8-1.9-6.5-3.5C63,36.7,63,30.1,63,29.8c0-1.1,0.9-2,2-2c0.3,0,6.9,0,11.1,4.2
	c1.6,1.6,2.8,3.8,3.5,6.5c0.2,0.8,0.2,1.7,0,2.5c-0.3,1.2-1.1,2.3-2.3,2.9C76.6,44.4,75.8,44.6,75,44.6z M67.2,32
	c0.3,1.8,1.1,4.3,2.8,6c1.1,1.1,2.7,2,4.7,2.5c0,0,0,0,0,0c0.3,0.1,0.5,0,0.6-0.1c0.1-0.1,0.3-0.2,0.4-0.5c0-0.1,0-0.3,0-0.4
	c-0.5-2-1.4-3.6-2.5-4.7C71.5,33.1,69,32.3,67.2,32z"/>
<path d="M53.7,82.3c-0.4,0-0.7-0.1-1.1-0.3c-1.6-1-4.7-5.3-4.7-10.4c0-1.1,0.9-2,2-2c1.1,0,2,0.9,2,2c0.1,3.7,2.4,6.7,3,7.2
	c0.9,0.6,1.1,1.9,0.5,2.8C55,82,54.4,82.3,53.7,82.3z"/>
<path d="M82,77.7c-0.1,0-0.1,0-0.2,0c-2.7-0.2-5.7-2.9-6.1-8.2c0,0,0-0.1,0-0.1V45.5c0-1.1,0.9-2,2-2s2,0.9,2,2v23.7
	c0.2,2.9,1.6,4.4,2.4,4.5c1.1,0.1,1.9,1.1,1.8,2.2C83.9,76.9,83.1,77.7,82,77.7z"/>
<path d="M68.8,82.7c-1.1,0-2-0.9-2-2s0.9-2,2-2c4.1,0,5.8-5.5,5.8-8.9c0-1.1,1-2,2-2c1.1,0,2,0.9,2,2C78.5,76.2,75.1,82.7,68.8,82.7
	z"/>
<path d="M70,74.6c-1.1,0-2-0.9-2-2s0.9-2,2-2c4.1,0,5.8-5.5,5.8-8.9c0-1.1,0.9-2,2-2c0,0,0,0,0,0c1.1,0,2,0.9,2,2
	C79.7,68.1,76.3,74.6,70,74.6z"/>
<path d="M81.4,83.7c-0.1,0-0.1,0-0.2,0c-2.7-0.2-5.7-2.9-6.1-8.2c-0.1-1.1,0.8-2.1,1.9-2.1c1.1-0.1,2.1,0.8,2.1,1.9
	c0.2,3,1.6,4.5,2.4,4.5c1.1,0.1,1.9,1.1,1.8,2.2C83.3,82.9,82.4,83.7,81.4,83.7z"/>
</svg>
